<svg width="477" height="463" viewBox="0 0 477 463" fill="none" xmlns="http://www.w3.org/2000/svg">
<path d="M303 115H123L123 348.5C123 373.353 163.294 393.5 213 393.5C262.706 393.5 303 373.353 303 348.5V115Z" fill="#D3E8F8"/>
<g opacity="0.6">
<path d="M124 196C131.75 213.925 168.426 227.5 212.5 227.5C256.574 227.5 293.25 213.925 301 196" stroke="white" stroke-width="3" stroke-linecap="round" stroke-linejoin="round"/>
<path d="M124 164C131.75 181.925 168.426 195.5 212.5 195.5C256.574 195.5 293.25 181.925 301 164" stroke="white" stroke-width="3" stroke-linecap="round" stroke-linejoin="round"/>
<path d="M124 228C131.75 245.925 168.426 259.5 212.5 259.5C256.574 259.5 293.25 245.925 301 228" stroke="white" stroke-width="3" stroke-linecap="round" stroke-linejoin="round"/>
<path d="M124 260C131.75 277.925 168.426 291.5 212.5 291.5C256.574 291.5 293.25 277.925 301 260" stroke="white" stroke-width="3" stroke-linecap="round" stroke-linejoin="round"/>
<path d="M124 292C131.75 309.925 168.426 323.5 212.5 323.5C256.574 323.5 293.25 309.925 301 292" stroke="white" stroke-width="3" stroke-linecap="round" stroke-linejoin="round"/>
<path d="M124 324C131.75 341.925 168.426 355.5 212.5 355.5C256.574 355.5 293.25 341.925 301 324" stroke="white" stroke-width="3" stroke-linecap="round" stroke-linejoin="round"/>
</g>
<path d="M180 322H0V418C0 442.853 40.2943 463 90 463C139.706 463 180 442.853 180 418V322Z" fill="#FAAAC6"/>
<rect x="159" width="107" height="50" rx="25" fill="#D3E8F8"/>
<path d="M184.703 23.7969H191.047V26.5312H184.703V33.7188H181.797V26.5312H175.453V23.7969H181.797V17.1562H184.703V23.7969ZM203.781 36H200.875V16.7344L195.047 18.875V16.25L203.328 13.1406H203.781V36ZM216.453 23.2188H218.625C219.99 23.1979 221.062 22.8385 221.844 22.1406C222.625 21.4427 223.016 20.5 223.016 19.3125C223.016 16.6458 221.688 15.3125 219.031 15.3125C217.781 15.3125 216.781 15.6719 216.031 16.3906C215.292 17.099 214.922 18.0417 214.922 19.2188H212.031C212.031 17.4167 212.688 15.9219 214 14.7344C215.323 13.5365 217 12.9375 219.031 12.9375C221.177 12.9375 222.859 13.5052 224.078 14.6406C225.297 15.776 225.906 17.3542 225.906 19.375C225.906 20.3646 225.583 21.3229 224.938 22.25C224.302 23.1771 223.432 23.8698 222.328 24.3281C223.578 24.724 224.542 25.3802 225.219 26.2969C225.906 27.2135 226.25 28.3333 226.25 29.6562C226.25 31.6979 225.583 33.3177 224.25 34.5156C222.917 35.7135 221.182 36.3125 219.047 36.3125C216.911 36.3125 215.172 35.7344 213.828 34.5781C212.495 33.4219 211.828 31.8958 211.828 30H214.734C214.734 31.1979 215.125 32.1562 215.906 32.875C216.688 33.5938 217.734 33.9531 219.047 33.9531C220.443 33.9531 221.51 33.5885 222.25 32.8594C222.99 32.1302 223.359 31.0833 223.359 29.7188C223.359 28.3958 222.953 27.3802 222.141 26.6719C221.328 25.9635 220.156 25.599 218.625 25.5781H216.453V23.2188ZM229.969 17.625C229.969 16.2604 230.401 15.1354 231.266 14.25C232.141 13.3646 233.26 12.9219 234.625 12.9219C236.01 12.9219 237.13 13.3698 237.984 14.2656C238.849 15.151 239.281 16.3021 239.281 17.7188V18.8281C239.281 20.2031 238.844 21.3281 237.969 22.2031C237.104 23.0677 236 23.5 234.656 23.5C233.302 23.5 232.182 23.0677 231.297 22.2031C230.411 21.3281 229.969 20.1667 229.969 18.7188V17.625ZM232.125 18.8281C232.125 19.6406 232.354 20.3125 232.812 20.8438C233.271 21.3646 233.885 21.625 234.656 21.625C235.396 21.625 235.99 21.3698 236.438 20.8594C236.896 20.349 237.125 19.651 237.125 18.7656V17.625C237.125 16.8125 236.901 16.1406 236.453 15.6094C236.005 15.0781 235.396 14.8125 234.625 14.8125C233.854 14.8125 233.245 15.0781 232.797 15.6094C232.349 16.1406 232.125 16.8333 232.125 17.6875V18.8281ZM241.047 30.4219C241.047 29.0573 241.479 27.9375 242.344 27.0625C243.219 26.1771 244.339 25.7344 245.703 25.7344C247.068 25.7344 248.188 26.1719 249.062 27.0469C249.938 27.9219 250.375 29.0833 250.375 30.5312V31.6406C250.375 33.0052 249.938 34.1302 249.062 35.0156C248.198 35.8906 247.089 36.3281 245.734 36.3281C244.38 36.3281 243.26 35.8958 242.375 35.0312C241.49 34.1562 241.047 32.9948 241.047 31.5469V30.4219ZM243.203 31.6406C243.203 32.4635 243.432 33.1406 243.891 33.6719C244.349 34.1927 244.964 34.4531 245.734 34.4531C246.484 34.4531 247.083 34.1979 247.531 33.6875C247.979 33.1667 248.203 32.4635 248.203 31.5781V30.4219C248.203 29.599 247.974 28.9271 247.516 28.4062C247.068 27.8854 246.464 27.625 245.703 27.625C244.964 27.625 244.359 27.8854 243.891 28.4062C243.432 28.9167 243.203 29.6094 243.203 30.4844V31.6406ZM235.312 34.2812L233.672 33.25L244.781 15.4688L246.422 16.5L235.312 34.2812Z" fill="#3692FE"/>
<path d="M90 366C139.706 366 180 345.853 180 321C180 296.147 139.706 276 90 276C40.2944 276 0 296.147 0 321C0 345.853 40.2944 366 90 366Z" fill="#E22D6E"/>
<path d="M149.131 307.677C144.026 305.892 138.567 303.989 133.226 302.1C133.108 302.056 132.99 302.012 132.842 301.968C132.252 301.746 131.573 301.51 130.747 301.377L130.688 301.363C116.406 299.636 101.888 297.866 87.8423 296.154C75.0948 294.605 62.3767 293.056 49.6292 291.507C49.3046 291.463 48.98 291.418 48.6259 291.374C47.4751 291.212 46.1472 291.035 44.7308 291.123C44.3177 291.153 43.9636 291.227 43.639 291.33L43.2849 291.477C42.7243 291.743 42.4292 292.082 42.2816 292.274L42.1931 292.392V293.071L42.2521 293.174C50.3079 304.461 58.5702 315.91 66.5374 326.99C72.6751 335.518 79.0489 344.356 85.2751 353.031C85.6587 353.622 86.7505 354.005 88.1079 354.064H88.403C89.6718 354.064 90.7931 353.754 91.3538 353.253L114.724 336.212C120.419 332.066 126.114 327.905 131.81 323.759C134.141 322.063 136.472 320.351 138.803 318.654C142.639 315.851 146.593 312.959 150.518 310.141L150.724 309.994V309.817C150.813 309.3 150.842 308.238 149.131 307.677ZM121.747 313.889C116.259 315.32 110.652 316.795 105.016 318.256C108.291 316.5 111.596 314.73 114.872 312.974C118.973 310.761 123.252 308.474 127.442 306.231L127.531 306.187C127.885 305.951 128.328 305.73 128.8 305.494C129.124 305.331 129.478 305.169 129.803 304.977C131.987 305.73 134.2 306.497 136.324 307.249C137.859 307.795 139.423 308.341 141.016 308.887C134.524 310.54 128.032 312.236 121.747 313.889ZM107.642 313.181C103.423 315.468 99.0554 317.813 94.7177 320.13C86.3079 315.025 77.721 309.846 69.3997 304.845C65.6226 302.572 61.8161 300.286 58.039 298.013L58.0095 297.999C57.1538 297.512 56.3275 296.981 55.5013 296.479C54.9702 296.14 54.4095 295.815 53.8489 295.476C57.2718 295.918 60.7243 296.331 64.1177 296.73C67.098 297.084 70.1964 297.453 73.2357 297.836C90.3505 299.917 107.495 301.997 124.609 304.077C118.914 307.117 113.19 310.2 107.642 313.181ZM92.7997 341.936C93.1243 340.387 93.4784 338.794 93.7734 337.23C94.039 335.976 94.3046 334.692 94.5702 333.468C94.9833 331.505 95.4259 329.469 95.78 327.477L95.8685 327.123C96.1636 325.854 96.4587 324.541 96.6357 323.228C96.9603 323.14 97.3144 323.051 97.698 322.977C98.1407 322.874 98.5833 322.786 99.0259 322.653C105.842 320.868 112.659 319.082 119.505 317.312C126.321 315.541 133.314 313.712 140.249 311.897C133.934 316.471 127.59 321.089 121.452 325.589C116.17 329.44 110.741 333.408 105.341 337.318C103.216 338.882 101.003 340.476 98.9079 342.01C96.5472 343.722 94.1275 345.477 91.7669 347.233C92.062 345.463 92.4161 343.677 92.7997 341.936ZM51.6652 298.958C51.2816 298.427 50.8685 297.881 50.5144 297.364C58.4816 302.174 66.5079 307.013 74.3275 311.705C78.3702 314.14 82.4128 316.559 86.4554 319.008C87.2521 319.466 88.0489 319.953 88.8161 320.425C89.8193 321.03 90.8226 321.664 91.9144 322.269C91.5603 323.789 91.2652 325.323 90.9407 326.799C90.7341 327.831 90.5275 328.864 90.2915 329.912V329.927C90.2029 330.59 90.0259 331.254 89.8784 331.904C89.6718 332.804 89.1997 334.84 89.1997 334.84L89.1702 334.943C88.639 337.923 87.9898 340.933 87.3702 343.854C87.1046 345.064 86.8685 346.304 86.6029 347.543C86.4554 347.322 86.2784 347.1 86.1308 346.894C85.6882 346.304 85.2456 345.684 84.8325 345.079L81.6751 340.697C71.6718 326.784 61.6685 312.886 51.6652 298.958Z" fill="white"/>
<path d="M303 119C303 143.853 262.706 164 213 164C163.294 164 123 143.853 123 119C123 94.1472 163.294 74 213 74C262.706 74 303 94.1472 303 119Z" fill="#3692FE"/>
<path fill-rule="evenodd" clip-rule="evenodd" d="M202.115 107.741C202.793 103.522 203.84 99.7409 205.16 96.6204C206.369 93.7622 207.791 91.4948 209.326 89.9586C210.096 89.1892 210.859 88.6389 211.58 88.29C212.296 87.9433 212.87 87.8412 213.309 87.8412C213.749 87.8412 214.323 87.9433 215.039 88.29C215.761 88.6389 216.523 89.1892 217.292 89.9586C218.828 91.4948 220.25 93.7622 221.459 96.6204C222.793 99.7749 223.849 103.604 224.526 107.879C220.974 108.727 217.314 109.648 213.585 110.637C209.673 109.595 205.835 108.628 202.115 107.741ZM199.405 107.105C191.981 105.388 185.092 104.013 179.118 103.044C173.384 102.114 168.42 101.545 164.603 101.419C162.698 101.356 160.998 101.4 159.601 101.589C158.198 101.78 156.972 102.136 156.262 102.74C155.552 103.345 155.536 104.045 155.902 104.737C156.266 105.426 157.037 106.172 158.1 106.952C160.015 108.356 163.024 109.976 166.887 111.724C166.268 112.689 167.069 113.769 168.925 114.296C170.265 114.676 171.837 114.678 173.132 114.37C176.853 115.857 181.08 117.412 185.717 118.993C178.713 121.37 172.625 123.691 167.784 125.814C163.278 127.789 159.794 129.617 157.664 131.179C156.601 131.958 155.829 132.704 155.465 133.393C155.099 134.085 155.114 134.785 155.824 135.389C156.534 135.994 157.76 136.35 159.163 136.541C160.56 136.73 162.26 136.775 164.165 136.712C167.982 136.586 172.946 136.018 178.68 135.088C184.773 134.1 191.817 132.691 199.41 130.927C199.876 133.672 200.499 136.231 201.254 138.544C200.063 138.941 199.281 139.611 199.281 140.371C199.281 141.425 200.783 142.306 202.792 142.525C203.942 145.043 205.291 147.134 206.808 148.651C207.65 149.493 208.579 150.194 209.611 150.694C210.648 151.196 211.889 151.539 213.309 151.539C214.73 151.539 215.971 151.196 217.008 150.694C218.04 150.194 218.969 149.493 219.811 148.651C221.498 146.964 222.978 144.567 224.206 141.662C225.508 138.583 226.544 134.893 227.232 130.794C234.871 132.572 241.958 133.991 248.084 134.986C253.818 135.916 258.782 136.485 262.598 136.611C264.504 136.674 266.204 136.63 267.601 136.44C269.003 136.25 270.23 135.893 270.94 135.289C271.65 134.685 271.666 133.985 271.3 133.292C270.936 132.603 270.165 131.857 269.102 131.078C266.973 129.516 263.49 127.688 258.984 125.712C254.215 123.62 248.236 121.336 241.363 118.995C248.056 116.706 253.885 114.474 258.555 112.427C263.061 110.451 266.544 108.623 268.675 107.062C269.738 106.283 270.51 105.537 270.874 104.848C271.24 104.155 271.224 103.455 270.514 102.851C269.804 102.247 268.578 101.89 267.175 101.7C265.778 101.51 264.079 101.466 262.173 101.528C258.742 101.642 254.382 102.113 249.369 102.882C247.978 102.137 245.674 101.938 243.818 102.465C242.478 102.845 241.688 103.513 241.584 104.218C237.13 105.054 232.308 106.068 227.237 107.242C226.55 103.129 225.512 99.4268 224.206 96.3399C222.978 93.4345 221.498 91.0378 219.811 89.3507C218.969 88.5085 218.04 87.8073 217.008 87.3077C215.971 86.8058 214.73 86.4624 213.309 86.4624C211.889 86.4624 210.648 86.8058 209.611 87.3077C208.579 87.8073 207.65 88.5085 206.808 89.3507C205.121 91.0378 203.641 93.4345 202.413 96.3399C201.122 99.3924 200.092 103.047 199.405 107.105ZM238.885 118.161C245.866 115.796 251.91 113.493 256.687 111.398C261.12 109.455 264.405 107.716 266.344 106.294C267.315 105.582 267.904 104.982 268.158 104.501C268.411 104.023 268.304 103.727 268.084 103.54C267.865 103.353 267.397 103.16 266.428 103.029C265.453 102.896 264.102 102.847 262.361 102.904C259.303 103.005 255.292 103.426 250.529 104.149C250.704 104.987 249.888 105.837 248.307 106.286C246.219 106.878 243.565 106.552 242.28 105.563C237.701 106.428 232.718 107.485 227.466 108.715C227.743 110.648 227.944 112.663 228.061 114.74C231.845 115.88 235.465 117.025 238.885 118.161ZM228.136 116.383C230.994 117.255 233.75 118.129 236.387 118.997C233.752 119.868 230.996 120.746 228.135 121.621C228.165 120.757 228.18 119.883 228.18 119.001C228.18 118.12 228.165 117.246 228.136 116.383ZM225.201 113.889C225.095 112.339 224.941 110.827 224.743 109.362C222.058 110.009 219.311 110.699 216.52 111.429C218.018 111.838 219.525 112.257 221.039 112.687C222.444 113.086 223.833 113.487 225.201 113.889ZM213.583 112.207C215.583 112.746 217.603 113.304 219.635 113.881C221.558 114.427 223.446 114.976 225.295 115.526C225.347 116.667 225.374 117.826 225.374 119.001C225.374 120.177 225.347 121.338 225.295 122.481C223.307 123.075 221.275 123.667 219.202 124.255C217.315 124.79 215.439 125.309 213.579 125.812C211.592 125.276 209.586 124.722 207.567 124.149C205.439 123.545 203.354 122.937 201.318 122.327C201.269 121.234 201.245 120.125 201.245 119.001C201.245 117.879 201.269 116.77 201.317 115.678C203.217 115.112 205.159 114.547 207.137 113.986C209.303 113.371 211.454 112.778 213.583 112.207ZM210.648 111.426C209.02 111.869 207.381 112.325 205.734 112.792C204.272 113.207 202.829 113.624 201.408 114.042C201.518 112.389 201.681 110.779 201.894 109.222C204.749 109.91 207.673 110.646 210.648 111.426ZM198.479 121.467C198.452 120.653 198.439 119.831 198.439 119.001C198.439 118.171 198.452 117.349 198.479 116.535C195.791 117.356 193.195 118.178 190.703 118.996C193.193 119.816 195.79 120.642 198.479 121.467ZM188.197 119.828C191.474 120.918 194.935 122.017 198.55 123.111C198.668 125.301 198.881 127.423 199.177 129.455C191.305 131.304 184.028 132.769 177.801 133.779C172.16 134.694 167.453 135.222 163.977 135.337C162.237 135.394 160.886 135.344 159.91 135.212C158.941 135.08 158.474 134.887 158.254 134.7C158.035 134.513 157.928 134.218 158.18 133.739C158.435 133.258 159.023 132.658 159.994 131.946C161.934 130.525 165.219 128.786 169.652 126.842C174.598 124.674 180.901 122.282 188.197 119.828ZM188.2 118.16C191.479 117.075 194.939 115.981 198.549 114.893C198.668 112.712 198.879 110.599 199.173 108.576C191.47 106.775 184.348 105.345 178.238 104.353C172.597 103.438 167.89 102.909 164.415 102.794C162.674 102.737 161.323 102.786 160.348 102.918C159.378 103.05 158.911 103.243 158.692 103.43C158.472 103.617 158.365 103.912 158.617 104.391C158.872 104.872 159.46 105.472 160.431 106.184C162.137 107.435 164.884 108.932 168.539 110.597C169.929 110.104 171.835 110.026 173.416 110.475C175.504 111.068 176.257 112.36 175.156 113.401C178.99 114.927 183.374 116.529 188.2 118.16ZM201.408 123.965C202.968 124.427 204.554 124.886 206.163 125.343C207.667 125.769 209.165 126.186 210.653 126.593C207.679 127.376 204.754 128.115 201.898 128.806C201.683 127.243 201.519 125.626 201.408 123.965ZM213.582 127.383C209.674 128.427 205.839 129.397 202.119 130.288C202.579 133.137 203.206 135.787 203.973 138.168C206.358 138.22 208.259 139.187 208.259 140.371C208.259 141.269 207.169 142.041 205.605 142.386C206.712 144.774 207.975 146.691 209.326 148.043C210.096 148.813 210.859 149.363 211.58 149.712C212.296 150.059 212.87 150.161 213.309 150.161C213.749 150.161 214.323 150.059 215.039 149.712C215.761 149.363 216.523 148.813 217.292 148.043C218.828 146.507 220.25 144.239 221.459 141.381C222.79 138.234 223.844 134.416 224.521 130.153C220.967 129.301 217.308 128.376 213.582 127.383ZM227.461 129.32C227.741 127.378 227.943 125.353 228.061 123.266C231.849 122.121 235.47 120.971 238.888 119.831C246.049 122.248 252.242 124.603 257.116 126.741C261.548 128.684 264.832 130.424 266.771 131.846C267.742 132.558 268.331 133.158 268.585 133.639C268.837 134.117 268.73 134.413 268.51 134.599C268.291 134.786 267.823 134.979 266.854 135.111C265.879 135.243 264.528 135.293 262.787 135.235C259.312 135.12 254.605 134.591 248.963 133.676C242.704 132.661 235.382 131.184 227.461 129.32ZM224.74 128.67C222.05 128.018 219.301 127.325 216.507 126.591C217.867 126.219 219.233 125.838 220.604 125.449C222.159 125.008 223.692 124.564 225.201 124.119C225.094 125.678 224.939 127.198 224.74 128.67ZM221.166 119.139C221.166 121.271 217.648 122.999 213.309 122.999C208.971 122.999 205.453 121.271 205.453 119.139C205.453 117.007 208.971 115.278 213.309 115.278C217.648 115.278 221.166 117.007 221.166 119.139Z" fill="white"/>
<g opacity="0.6">
<path d="M2 368C9.75042 385.925 46.4258 399.5 90.5 399.5C134.574 399.5 171.25 385.925 179 368" stroke="white" stroke-width="3" stroke-linecap="round" stroke-linejoin="round"/>
<path d="M2 400C9.75042 417.925 46.4258 431.5 90.5 431.5C134.574 431.5 171.25 417.925 179 400" stroke="white" stroke-width="3" stroke-linecap="round" stroke-linejoin="round"/>
</g>
<rect x="23" y="202" width="135" height="50" rx="25" fill="#FFD7E5"/>
<path d="M49.5 225.797H55.8438V228.531H49.5V235.719H46.5938V228.531H40.25V225.797H46.5938V219.156H49.5V225.797ZM71.2812 230.359H74.4375V232.719H71.2812V238H68.375V232.719H58.0156V231.016L68.2031 215.25H71.2812V230.359ZM61.2969 230.359H68.375V219.203L68.0312 219.828L61.2969 230.359ZM77.4062 236.484C77.4062 235.984 77.5521 235.568 77.8438 235.234C78.1458 234.901 78.5938 234.734 79.1875 234.734C79.7812 234.734 80.2292 234.901 80.5312 235.234C80.8438 235.568 81 235.984 81 236.484C81 236.964 80.8438 237.365 80.5312 237.688C80.2292 238.01 79.7812 238.172 79.1875 238.172C78.5938 238.172 78.1458 238.01 77.8438 237.688C77.5521 237.365 77.4062 236.964 77.4062 236.484ZM94.9844 238H92.0781V218.734L86.25 220.875V218.25L94.5312 215.141H94.9844V238ZM107.656 225.219H109.828C111.193 225.198 112.266 224.839 113.047 224.141C113.828 223.443 114.219 222.5 114.219 221.312C114.219 218.646 112.891 217.312 110.234 217.312C108.984 217.312 107.984 217.672 107.234 218.391C106.495 219.099 106.125 220.042 106.125 221.219H103.234C103.234 219.417 103.891 217.922 105.203 216.734C106.526 215.536 108.203 214.938 110.234 214.938C112.38 214.938 114.062 215.505 115.281 216.641C116.5 217.776 117.109 219.354 117.109 221.375C117.109 222.365 116.786 223.323 116.141 224.25C115.505 225.177 114.635 225.87 113.531 226.328C114.781 226.724 115.745 227.38 116.422 228.297C117.109 229.214 117.453 230.333 117.453 231.656C117.453 233.698 116.786 235.318 115.453 236.516C114.12 237.714 112.385 238.312 110.25 238.312C108.115 238.312 106.375 237.734 105.031 236.578C103.698 235.422 103.031 233.896 103.031 232H105.938C105.938 233.198 106.328 234.156 107.109 234.875C107.891 235.594 108.938 235.953 110.25 235.953C111.646 235.953 112.714 235.589 113.453 234.859C114.193 234.13 114.562 233.083 114.562 231.719C114.562 230.396 114.156 229.38 113.344 228.672C112.531 227.964 111.359 227.599 109.828 227.578H107.656V225.219ZM121.172 219.625C121.172 218.26 121.604 217.135 122.469 216.25C123.344 215.365 124.464 214.922 125.828 214.922C127.214 214.922 128.333 215.37 129.188 216.266C130.052 217.151 130.484 218.302 130.484 219.719V220.828C130.484 222.203 130.047 223.328 129.172 224.203C128.307 225.068 127.203 225.5 125.859 225.5C124.505 225.5 123.385 225.068 122.5 224.203C121.615 223.328 121.172 222.167 121.172 220.719V219.625ZM123.328 220.828C123.328 221.641 123.557 222.312 124.016 222.844C124.474 223.365 125.089 223.625 125.859 223.625C126.599 223.625 127.193 223.37 127.641 222.859C128.099 222.349 128.328 221.651 128.328 220.766V219.625C128.328 218.812 128.104 218.141 127.656 217.609C127.208 217.078 126.599 216.812 125.828 216.812C125.057 216.812 124.448 217.078 124 217.609C123.552 218.141 123.328 218.833 123.328 219.688V220.828ZM132.25 232.422C132.25 231.057 132.682 229.938 133.547 229.062C134.422 228.177 135.542 227.734 136.906 227.734C138.271 227.734 139.391 228.172 140.266 229.047C141.141 229.922 141.578 231.083 141.578 232.531V233.641C141.578 235.005 141.141 236.13 140.266 237.016C139.401 237.891 138.292 238.328 136.938 238.328C135.583 238.328 134.464 237.896 133.578 237.031C132.693 236.156 132.25 234.995 132.25 233.547V232.422ZM134.406 233.641C134.406 234.464 134.635 235.141 135.094 235.672C135.552 236.193 136.167 236.453 136.938 236.453C137.688 236.453 138.286 236.198 138.734 235.688C139.182 235.167 139.406 234.464 139.406 233.578V232.422C139.406 231.599 139.177 230.927 138.719 230.406C138.271 229.885 137.667 229.625 136.906 229.625C136.167 229.625 135.562 229.885 135.094 230.406C134.635 230.917 134.406 231.609 134.406 232.484V233.641ZM126.516 236.281L124.875 235.25L135.984 217.469L137.625 218.5L126.516 236.281Z" fill="#E22D6E"/>
<path d="M476 292H296L296 417.5C296 442.353 336.294 462.5 386 462.5C435.706 462.5 476 442.353 476 417.5V292Z" fill="#C2ECDD"/>
<g opacity="0.5">
<path d="M298 332C305.75 349.925 342.426 363.5 386.5 363.5C430.574 363.5 467.25 349.925 475 332" stroke="white" stroke-width="3" stroke-linecap="round" stroke-linejoin="round"/>
<path d="M298 364C305.75 381.925 342.426 395.5 386.5 395.5C430.574 395.5 467.25 381.925 475 364" stroke="white" stroke-width="3" stroke-linecap="round" stroke-linejoin="round"/>
<path d="M298 396C305.75 413.925 342.426 427.5 386.5 427.5C430.574 427.5 467.25 413.925 475 396" stroke="white" stroke-width="3" stroke-linecap="round" stroke-linejoin="round"/>
</g>
<rect x="316" y="169" width="141" height="50" rx="25" fill="#D8F3EA"/>
<path d="M345.5 192.797H351.844V195.531H345.5V202.719H342.594V195.531H336.25V192.797H342.594V186.156H345.5V192.797ZM366.422 182.234V184.688H365.891C363.641 184.729 361.849 185.396 360.516 186.688C359.182 187.979 358.411 189.797 358.203 192.141C359.401 190.766 361.036 190.078 363.109 190.078C365.089 190.078 366.667 190.776 367.844 192.172C369.031 193.568 369.625 195.37 369.625 197.578C369.625 199.922 368.984 201.797 367.703 203.203C366.432 204.609 364.724 205.312 362.578 205.312C360.401 205.312 358.635 204.479 357.281 202.812C355.927 201.135 355.25 198.979 355.25 196.344V195.234C355.25 191.047 356.141 187.849 357.922 185.641C359.714 183.422 362.375 182.286 365.906 182.234H366.422ZM362.625 192.484C361.635 192.484 360.724 192.781 359.891 193.375C359.057 193.969 358.479 194.714 358.156 195.609V196.672C358.156 198.547 358.578 200.057 359.422 201.203C360.266 202.349 361.318 202.922 362.578 202.922C363.88 202.922 364.901 202.443 365.641 201.484C366.391 200.526 366.766 199.271 366.766 197.719C366.766 196.156 366.385 194.896 365.625 193.938C364.875 192.969 363.875 192.484 362.625 192.484ZM373.406 203.484C373.406 202.984 373.552 202.568 373.844 202.234C374.146 201.901 374.594 201.734 375.188 201.734C375.781 201.734 376.229 201.901 376.531 202.234C376.844 202.568 377 202.984 377 203.484C377 203.964 376.844 204.365 376.531 204.688C376.229 205.01 375.781 205.172 375.188 205.172C374.594 205.172 374.146 205.01 373.844 204.688C373.552 204.365 373.406 203.964 373.406 203.484ZM392.562 195C391.958 195.719 391.234 196.297 390.391 196.734C389.557 197.172 388.641 197.391 387.641 197.391C386.328 197.391 385.182 197.068 384.203 196.422C383.234 195.776 382.484 194.87 381.953 193.703C381.422 192.526 381.156 191.229 381.156 189.812C381.156 188.292 381.443 186.922 382.016 185.703C382.599 184.484 383.422 183.552 384.484 182.906C385.547 182.26 386.786 181.938 388.203 181.938C390.453 181.938 392.224 182.781 393.516 184.469C394.818 186.146 395.469 188.438 395.469 191.344V192.188C395.469 196.615 394.594 199.849 392.844 201.891C391.094 203.922 388.453 204.964 384.922 205.016H384.359V202.578H384.969C387.354 202.536 389.188 201.917 390.469 200.719C391.75 199.51 392.448 197.604 392.562 195ZM388.109 195C389.078 195 389.969 194.703 390.781 194.109C391.604 193.516 392.203 192.781 392.578 191.906V190.75C392.578 188.854 392.167 187.312 391.344 186.125C390.521 184.938 389.479 184.344 388.219 184.344C386.948 184.344 385.927 184.833 385.156 185.812C384.385 186.781 384 188.062 384 189.656C384 191.208 384.37 192.49 385.109 193.5C385.859 194.5 386.859 195 388.109 195ZM411.656 197.359H414.812V199.719H411.656V205H408.75V199.719H398.391V198.016L408.578 182.25H411.656V197.359ZM401.672 197.359H408.75V186.203L408.406 186.828L401.672 197.359ZM417.172 186.625C417.172 185.26 417.604 184.135 418.469 183.25C419.344 182.365 420.464 181.922 421.828 181.922C423.214 181.922 424.333 182.37 425.188 183.266C426.052 184.151 426.484 185.302 426.484 186.719V187.828C426.484 189.203 426.047 190.328 425.172 191.203C424.307 192.068 423.203 192.5 421.859 192.5C420.505 192.5 419.385 192.068 418.5 191.203C417.615 190.328 417.172 189.167 417.172 187.719V186.625ZM419.328 187.828C419.328 188.641 419.557 189.312 420.016 189.844C420.474 190.365 421.089 190.625 421.859 190.625C422.599 190.625 423.193 190.37 423.641 189.859C424.099 189.349 424.328 188.651 424.328 187.766V186.625C424.328 185.812 424.104 185.141 423.656 184.609C423.208 184.078 422.599 183.812 421.828 183.812C421.057 183.812 420.448 184.078 420 184.609C419.552 185.141 419.328 185.833 419.328 186.688V187.828ZM428.25 199.422C428.25 198.057 428.682 196.938 429.547 196.062C430.422 195.177 431.542 194.734 432.906 194.734C434.271 194.734 435.391 195.172 436.266 196.047C437.141 196.922 437.578 198.083 437.578 199.531V200.641C437.578 202.005 437.141 203.13 436.266 204.016C435.401 204.891 434.292 205.328 432.938 205.328C431.583 205.328 430.464 204.896 429.578 204.031C428.693 203.156 428.25 201.995 428.25 200.547V199.422ZM430.406 200.641C430.406 201.464 430.635 202.141 431.094 202.672C431.552 203.193 432.167 203.453 432.938 203.453C433.688 203.453 434.286 203.198 434.734 202.688C435.182 202.167 435.406 201.464 435.406 200.578V199.422C435.406 198.599 435.177 197.927 434.719 197.406C434.271 196.885 433.667 196.625 432.906 196.625C432.167 196.625 431.562 196.885 431.094 197.406C430.635 197.917 430.406 198.609 430.406 199.484V200.641ZM422.516 203.281L420.875 202.25L431.984 184.469L433.625 185.5L422.516 203.281Z" fill="#2BAF80"/>
<ellipse cx="386" cy="288" rx="90" ry="45" fill="#5BC7A0"/>
<path d="M397.897 315C390.075 315 384.373 314.092 380.793 312.219C377.212 310.345 375.481 308.385 375.481 306.222C375.481 305.459 375.772 304.783 376.453 304.252C377.037 303.721 377.893 303.296 378.964 303.006C380.034 302.717 381.377 302.524 382.933 302.524C384.49 302.524 385.833 302.668 386.903 303.006C387.973 303.296 388.829 303.721 389.413 304.252C389.997 304.783 390.386 305.45 390.386 306.222C390.386 307.178 389.9 307.951 389.024 308.52C388.148 309.1 387 309.525 385.735 309.718C386.806 310.432 388.538 310.964 390.853 311.301C393.169 311.639 395.484 311.784 397.82 311.784C401.108 311.784 404.008 311.35 406.615 310.49C409.223 309.631 411.149 308.337 412.414 306.657C413.679 304.976 414.243 303.064 414.243 300.901C414.243 298.555 413.562 296.585 412.219 294.953C410.857 293.273 408.931 292.027 406.323 291.264C403.716 290.453 400.914 290.067 397.82 290.067C395.796 290.067 393.383 290.501 390.386 291.312L384.938 292.606V291.264L409.573 274.964H375.481V291.892C375.481 293.282 376.064 294.431 377.31 295.349C378.575 296.256 380.501 296.691 383.011 296.691C385.035 296.691 386.884 296.353 388.713 295.687C390.542 295.011 392.099 294.2 393.441 293.292C393.636 293.099 393.83 292.954 394.025 292.906C394.317 292.809 394.512 292.761 394.803 292.761C395.29 292.761 395.776 292.857 396.438 293.099C397.022 293.437 397.314 293.813 397.314 294.248C397.314 294.441 397.119 294.731 397.022 295.107C395.66 296.691 393.733 297.888 391.223 298.7C388.713 299.511 386.008 299.945 383.011 299.945C375.578 299.945 370.538 299.231 367.639 297.792C364.836 296.353 363.396 294.383 363.396 291.94V274.964H346V271.796H363.494V264.602L359.524 262.632V261H371.122L375.461 262.101V271.748L420.587 271.7L425.023 273.901L397.411 287.672C399.046 287.334 400.797 287.141 402.626 287.044C405.623 287.044 409.009 287.527 412.667 288.483C416.442 289.391 419.341 290.685 421.365 292.317C423.389 293.948 424.751 295.484 425.335 296.971C425.919 298.458 426.308 299.752 426.308 300.95C426.308 303.586 425.14 306.029 422.922 308.289C420.703 310.539 417.318 312.267 412.686 313.368C408.133 314.469 403.21 315 397.897 315Z" fill="white"/>
</svg>
