<svg id="visual" viewBox="0 0 2560 1440" width="2560" height="1440" xmlns="http://www.w3.org/2000/svg" xmlns:xlink="http://www.w3.org/1999/xlink" version="1.1"><rect x="0" y="0" width="2560" height="1440" fill="#000000"></rect><path d="M0 992L71.2 1016.5C142.3 1041 284.7 1090 426.8 1089.3C569 1088.7 711 1038.3 853.2 1038.7C995.3 1039 1137.7 1090 1280 1041.5C1422.3 993 1564.7 845 1706.8 779C1849 713 1991 729 2133.2 776.3C2275.3 823.7 2417.7 902.3 2488.8 941.7L2560 981L2560 1441L2488.8 1441C2417.7 1441 2275.3 1441 2133.2 1441C1991 1441 1849 1441 1706.8 1441C1564.7 1441 1422.3 1441 1280 1441C1137.7 1441 995.3 1441 853.2 1441C711 1441 569 1441 426.8 1441C284.7 1441 142.3 1441 71.2 1441L0 1441Z" fill="#AEBCDB" stroke-linecap="round" stroke-linejoin="miter"></path></svg>